<?xml version="1.0" encoding="UTF-8"?>
<!DOCTYPE svg PUBLIC "-//W3C//DTD SVG 1.1//EN" "http://www.w3.org/Graphics/SVG/1.1/DTD/svg11.dtd">
<svg xmlns="http://www.w3.org/2000/svg" version="1.1" width="170px" height="248px" style="shape-rendering:geometricPrecision; text-rendering:geometricPrecision; image-rendering:optimizeQuality; fill-rule:evenodd; clip-rule:evenodd" xmlns:xlink="http://www.w3.org/1999/xlink">
<g><path style="opacity:0.985" fill="#e55100" d="M -0.5,-0.5 C 13.8333,-0.5 28.1667,-0.5 42.5,-0.5C 42.5,15.5 42.5,31.5 42.5,47.5C 41.8334,70.3309 41.5,93.3309 41.5,116.5C 41.3623,141.534 41.8623,166.534 43,191.5C 45.5,198 50,202.5 56.5,205C 74.8333,205.667 93.1667,205.667 111.5,205C 119.408,202.758 124.241,197.591 126,189.5C 126.828,139.096 126.662,88.7627 125.5,38.5C 125.5,25.5 125.5,12.5 125.5,-0.5C 140.167,-0.5 154.833,-0.5 169.5,-0.5C 169.5,69.1667 169.5,138.833 169.5,208.5C 168.185,231.468 156.185,244.468 133.5,247.5C 100.833,247.5 68.1667,247.5 35.5,247.5C 15.8282,244.827 3.82822,233.827 -0.5,214.5C -0.5,142.833 -0.5,71.1667 -0.5,-0.5 Z"/></g>
<g><path style="opacity:0.997" fill="#fedb96" d="M 125.5,38.5 C 126.662,88.7627 126.828,139.096 126,189.5C 124.241,197.591 119.408,202.758 111.5,205C 93.1667,205.667 74.8333,205.667 56.5,205C 50,202.5 45.5,198 43,191.5C 41.8623,166.534 41.3623,141.534 41.5,116.5C 41.5,93.3309 41.8334,70.3309 42.5,47.5C 48.5652,47.7386 54.5652,47.2386 60.5,46C 67.4802,42.3671 74.4802,38.7005 81.5,35C 96.5454,31.0987 111.212,32.2653 125.5,38.5 Z"/></g>
<g><path style="opacity:1" fill="#fffdfa" d="M 107.5,67.5 C 110.652,66.9586 113.152,67.9586 115,70.5C 115.667,101.5 115.667,132.5 115,163.5C 112.294,166.978 109.294,167.311 106,164.5C 105.333,132.833 105.333,101.167 106,69.5C 106.717,68.9558 107.217,68.2891 107.5,67.5 Z"/></g>
<g><path style="opacity:1" fill="#fffdfb" d="M 107.5,178.5 C 110.044,178.104 112.211,178.771 114,180.5C 114.667,183.5 114.667,186.5 114,189.5C 110.801,193.659 108.135,193.325 106,188.5C 105.153,184.928 105.653,181.594 107.5,178.5 Z"/></g>
</svg>
